<svg xmlns="http://www.w3.org/2000/svg" viewBox="0 0 256.71 205.8"><defs><style>.cls-1,.cls-2,.cls-8{fill:#323333;}.cls-2,.cls-8{font-size:14.46px;font-family:FuturaPT-Light, Futura PT;font-weight:300;}.cls-2,.cls-9{letter-spacing:0em;}.cls-3{letter-spacing:-0.01em;}.cls-4{letter-spacing:0em;}.cls-5{letter-spacing:-0.03em;}.cls-6{letter-spacing:-0.05em;}.cls-7{letter-spacing:-0.02em;}.cls-8{letter-spacing:-0.08em;}.cls-10{letter-spacing:-0.02em;}.cls-11{letter-spacing:0em;}.cls-12{letter-spacing:-0.03em;}.cls-13{fill:none;stroke:#323333;stroke-miterlimit:10;stroke-width:0.5px;}</style></defs><title>Asset 1</title><g id="Layer_2" data-name="Layer 2"><g id="Layer_1-2" data-name="Layer 1"><rect class="cls-1" x="64.57" y="154.05" width="126.89" height="4.25" rx="2.13"/><text class="cls-2" transform="translate(121.32 150.76)">50</text><text class="cls-2" transform="translate(157.17 113.13)">D<tspan class="cls-3" x="8.89" y="0">r</tspan><tspan class="cls-4" x="12.45" y="0">ag t</tspan><tspan class="cls-5" x="33.44" y="0">h</tspan><tspan x="39.34" y="0">e bar to set</tspan><tspan x="7.82" y="17.35">your </tspan><tspan class="cls-6" x="34.78" y="17.35">‘</tspan><tspan class="cls-4" x="37.28" y="17.35">assumptio</tspan><tspan class="cls-7" x="90.23" y="17.35">n</tspan><tspan x="96.29" y="17.35">’</tspan></text><text class="cls-8" transform="translate(172.28 12.05)">Y<tspan class="cls-9" x="6.26" y="0">our ‘life points’</tspan><tspan class="cls-9"><tspan x="-7.59" y="17.35">Be careful not to </tspan></tspan><tspan class="cls-10"><tspan x="1.75" y="34.71">r</tspan><tspan class="cls-9" x="5.16" y="34.71">un out of t</tspan><tspan class="cls-5" x="57.6" y="34.71">h</tspan><tspan class="cls-11" x="63.5" y="34.71">em!</tspan></tspan></text><text class="cls-2" transform="translate(0 184.83)">Double click on <tspan x="0" y="17.35">t</tspan><tspan class="cls-12" x="2.76" y="17.35">h</tspan><tspan x="8.66" y="17.35">e bar to see results </tspan></text><path class="cls-13" d="M100.62,168.13a14,14,0,0,1-14,14"/><polygon class="cls-1" points="100.62 165 97.98 169.58 103.27 169.58 100.62 165"/><path class="cls-13" d="M251.75,65.21a14,14,0,0,1-14-14"/><polygon class="cls-1" points="254.88 65.21 250.3 62.57 250.3 67.86 254.88 65.21"/><path class="cls-13" d="M149,143.24a14,14,0,0,1,14-14"/><polygon class="cls-1" points="149.03 147.4 151.67 142.82 146.39 142.82 149.03 147.4"/></g></g></svg>